<svg id="visual" viewBox="0 0 1920 1080" width="1920" height="1080" xmlns="http://www.w3.org/2000/svg" xmlns:xlink="http://www.w3.org/1999/xlink" version="1.1"><g stroke-width="1" stroke-linejoin="bevel"><path d="M862.3 539L845.3 394L619 544Z" fill="#051423" stroke="#051423"></path><path d="M845.3 394L600 383L619 544Z" fill="#121c26" stroke="#121c26"></path><path d="M619 544L830.3 714L862.3 539Z" fill="#25282c" stroke="#25282c"></path><path d="M845.3 394L675 212L600 383Z" fill="#051423" stroke="#051423"></path><path d="M454.7 731L644 758L619 544Z" fill="#0a1724" stroke="#0a1724"></path><path d="M619 544L644 758L830.3 714Z" fill="#292b2d" stroke="#292b2d"></path><path d="M426.7 396L421.7 529L600 383Z" fill="#051423" stroke="#051423"></path><path d="M600 383L421.7 529L619 544Z" fill="#21262b" stroke="#21262b"></path><path d="M411.7 187L426.7 396L600 383Z" fill="#051423" stroke="#051423"></path><path d="M1061.7 206L857.3 151L845.3 394Z" fill="#051423" stroke="#051423"></path><path d="M845.3 394L857.3 151L675 212Z" fill="#21262b" stroke="#21262b"></path><path d="M1026.7 712L1089.7 543L862.3 539Z" fill="#0a1724" stroke="#0a1724"></path><path d="M862.3 539L1089.7 543L845.3 394Z" fill="#1a2128" stroke="#1a2128"></path><path d="M843.3 868L1026.7 712L830.3 714Z" fill="#121c26" stroke="#121c26"></path><path d="M830.3 714L1026.7 712L862.3 539Z" fill="#292b2d" stroke="#292b2d"></path><path d="M1089.7 543L1081.7 339L845.3 394Z" fill="#0a1724" stroke="#0a1724"></path><path d="M421.7 529L454.7 731L619 544Z" fill="#1d2329" stroke="#1d2329"></path><path d="M628 878L843.3 868L644 758Z" fill="#1a2128" stroke="#1a2128"></path><path d="M644 758L843.3 868L830.3 714Z" fill="#0a1724" stroke="#0a1724"></path><path d="M454.7 731L628 878L644 758Z" fill="#25282c" stroke="#25282c"></path><path d="M1081.7 339L1061.7 206L845.3 394Z" fill="#21262b" stroke="#21262b"></path><path d="M610 0L411.7 187L675 212Z" fill="#21262b" stroke="#21262b"></path><path d="M675 212L411.7 187L600 383Z" fill="#121c26" stroke="#121c26"></path><path d="M426.7 396L214.3 559L421.7 529Z" fill="#051423" stroke="#051423"></path><path d="M1055.7 0L829.3 0L857.3 151Z" fill="#21262b" stroke="#21262b"></path><path d="M857.3 151L829.3 0L675 212Z" fill="#001122" stroke="#001122"></path><path d="M829.3 0L610 0L675 212Z" fill="#051423" stroke="#051423"></path><path d="M1081.7 339L1241 326L1061.7 206Z" fill="#051423" stroke="#051423"></path><path d="M1061.7 206L1055.7 0L857.3 151Z" fill="#121c26" stroke="#121c26"></path><path d="M1089.7 543L1241 326L1081.7 339Z" fill="#121c26" stroke="#121c26"></path><path d="M1288 500L1241 326L1089.7 543Z" fill="#0a1724" stroke="#0a1724"></path><path d="M173.3 343L214.3 559L426.7 396Z" fill="#0e1925" stroke="#0e1925"></path><path d="M421.7 529L214.3 559L454.7 731Z" fill="#051423" stroke="#051423"></path><path d="M454.7 731L422.7 907L628 878Z" fill="#25282c" stroke="#25282c"></path><path d="M197.3 709L422.7 907L454.7 731Z" fill="#25282c" stroke="#25282c"></path><path d="M851.3 1080L1064.7 920L843.3 868Z" fill="#292b2d" stroke="#292b2d"></path><path d="M843.3 868L1064.7 920L1026.7 712Z" fill="#121c26" stroke="#121c26"></path><path d="M1299 714L1288 500L1089.7 543Z" fill="#1a2128" stroke="#1a2128"></path><path d="M652 1080L843.3 868L628 878Z" fill="#1a2128" stroke="#1a2128"></path><path d="M1299 714L1089.7 543L1026.7 712Z" fill="#292b2d" stroke="#292b2d"></path><path d="M610 0L444.7 0L411.7 187Z" fill="#21262b" stroke="#21262b"></path><path d="M224.3 198L173.3 343L426.7 396Z" fill="#051423" stroke="#051423"></path><path d="M1291 184L1055.7 0L1061.7 206Z" fill="#161e27" stroke="#161e27"></path><path d="M224.3 198L426.7 396L411.7 187Z" fill="#25282c" stroke="#25282c"></path><path d="M213.3 0L224.3 198L411.7 187Z" fill="#25282c" stroke="#25282c"></path><path d="M0 552L197.3 709L214.3 559Z" fill="#051423" stroke="#051423"></path><path d="M214.3 559L197.3 709L454.7 731Z" fill="#051423" stroke="#051423"></path><path d="M460.7 1080L652 1080L628 878Z" fill="#161e27" stroke="#161e27"></path><path d="M1266 876L1299 714L1026.7 712Z" fill="#1a2128" stroke="#1a2128"></path><path d="M652 1080L851.3 1080L843.3 868Z" fill="#21262b" stroke="#21262b"></path><path d="M1530.3 368L1291 184L1241 326Z" fill="#21262b" stroke="#21262b"></path><path d="M1241 326L1291 184L1061.7 206Z" fill="#0a1724" stroke="#0a1724"></path><path d="M1530.3 368L1241 326L1288 500Z" fill="#1d2329" stroke="#1d2329"></path><path d="M1064.7 920L1266 876L1026.7 712Z" fill="#25282c" stroke="#25282c"></path><path d="M1256 1080L1266 876L1064.7 920Z" fill="#292b2d" stroke="#292b2d"></path><path d="M422.7 907L460.7 1080L628 878Z" fill="#1d2329" stroke="#1d2329"></path><path d="M220.3 1080L460.7 1080L422.7 907Z" fill="#0a1724" stroke="#0a1724"></path><path d="M197.3 709L199.3 917L422.7 907Z" fill="#001122" stroke="#001122"></path><path d="M0 900L199.3 917L197.3 709Z" fill="#292b2d" stroke="#292b2d"></path><path d="M851.3 1080L1101.7 1080L1064.7 920Z" fill="#21262b" stroke="#21262b"></path><path d="M444.7 0L213.3 0L411.7 187Z" fill="#0a1724" stroke="#0a1724"></path><path d="M0 193L0 343L173.3 343Z" fill="#051423" stroke="#051423"></path><path d="M1520.3 754L1473.3 528L1299 714Z" fill="#001122" stroke="#001122"></path><path d="M1299 714L1473.3 528L1288 500Z" fill="#0a1724" stroke="#0a1724"></path><path d="M0 343L0 552L173.3 343Z" fill="#292b2d" stroke="#292b2d"></path><path d="M173.3 343L0 552L214.3 559Z" fill="#25282c" stroke="#25282c"></path><path d="M1495.3 161L1307 0L1291 184Z" fill="#1a2128" stroke="#1a2128"></path><path d="M1291 184L1307 0L1055.7 0Z" fill="#292b2d" stroke="#292b2d"></path><path d="M0 193L173.3 343L224.3 198Z" fill="#21262b" stroke="#21262b"></path><path d="M0 552L0 713L197.3 709Z" fill="#1d2329" stroke="#1d2329"></path><path d="M1101.7 1080L1256 1080L1064.7 920Z" fill="#121c26" stroke="#121c26"></path><path d="M1266 876L1520.3 754L1299 714Z" fill="#0e1925" stroke="#0e1925"></path><path d="M213.3 0L0 193L224.3 198Z" fill="#161e27" stroke="#161e27"></path><path d="M0 1080L220.3 1080L199.3 917Z" fill="#051423" stroke="#051423"></path><path d="M199.3 917L220.3 1080L422.7 907Z" fill="#21262b" stroke="#21262b"></path><path d="M1473.3 528L1530.3 368L1288 500Z" fill="#21262b" stroke="#21262b"></path><path d="M1530.3 368L1495.3 161L1291 184Z" fill="#25282c" stroke="#25282c"></path><path d="M1493.3 922L1520.3 754L1266 876Z" fill="#21262b" stroke="#21262b"></path><path d="M1473.3 528L1682.7 509L1530.3 368Z" fill="#051423" stroke="#051423"></path><path d="M0 713L0 900L197.3 709Z" fill="#1a2128" stroke="#1a2128"></path><path d="M1256 1080L1493.3 922L1266 876Z" fill="#292b2d" stroke="#292b2d"></path><path d="M213.3 0L0 0L0 193Z" fill="#001122" stroke="#001122"></path><path d="M1700.7 0L1485.3 0L1495.3 161Z" fill="#21262b" stroke="#21262b"></path><path d="M1495.3 161L1485.3 0L1307 0Z" fill="#292b2d" stroke="#292b2d"></path><path d="M1520.3 754L1682.7 509L1473.3 528Z" fill="#1a2128" stroke="#1a2128"></path><path d="M1530.3 368L1670.7 201L1495.3 161Z" fill="#051423" stroke="#051423"></path><path d="M1702.7 745L1682.7 509L1520.3 754Z" fill="#051423" stroke="#051423"></path><path d="M0 900L0 1080L199.3 917Z" fill="#292b2d" stroke="#292b2d"></path><path d="M1717.7 342L1670.7 201L1530.3 368Z" fill="#001122" stroke="#001122"></path><path d="M1682.7 509L1717.7 342L1530.3 368Z" fill="#051423" stroke="#051423"></path><path d="M1256 1080L1531.3 1080L1493.3 922Z" fill="#051423" stroke="#051423"></path><path d="M1713.7 919L1702.7 745L1520.3 754Z" fill="#161e27" stroke="#161e27"></path><path d="M1713.7 919L1520.3 754L1493.3 922Z" fill="#121c26" stroke="#121c26"></path><path d="M1682.7 509L1920 512L1717.7 342Z" fill="#161e27" stroke="#161e27"></path><path d="M1531.3 1080L1713.7 919L1493.3 922Z" fill="#161e27" stroke="#161e27"></path><path d="M1702.7 745L1920 512L1682.7 509Z" fill="#1d2329" stroke="#1d2329"></path><path d="M1920 180L1700.7 0L1670.7 201Z" fill="#1a2128" stroke="#1a2128"></path><path d="M1670.7 201L1700.7 0L1495.3 161Z" fill="#001122" stroke="#001122"></path><path d="M1531.3 1080L1739.7 1080L1713.7 919Z" fill="#1d2329" stroke="#1d2329"></path><path d="M1920 738L1920 512L1702.7 745Z" fill="#1a2128" stroke="#1a2128"></path><path d="M1920 738L1702.7 745L1920 879Z" fill="#25282c" stroke="#25282c"></path><path d="M1717.7 342L1920 180L1670.7 201Z" fill="#0e1925" stroke="#0e1925"></path><path d="M1920 512L1920 324L1717.7 342Z" fill="#21262b" stroke="#21262b"></path><path d="M1920 879L1702.7 745L1713.7 919Z" fill="#0a1724" stroke="#0a1724"></path><path d="M1920 324L1920 180L1717.7 342Z" fill="#001122" stroke="#001122"></path><path d="M1920 1080L1920 879L1713.7 919Z" fill="#292b2d" stroke="#292b2d"></path><path d="M1920 180L1920 0L1700.7 0Z" fill="#0a1724" stroke="#0a1724"></path><path d="M1739.7 1080L1920 1080L1713.7 919Z" fill="#25282c" stroke="#25282c"></path></g></svg>